<?xml version="1.0" encoding="utf-8"?>
<!-- Generator: Adobe Illustrator 22.1.0, SVG Export Plug-In . SVG Version: 6.00 Build 0)  -->
<svg version="1.1"  xmlns="http://www.w3.org/2000/svg" xmlns:xlink="http://www.w3.org/1999/xlink" x="0px" y="0px"
	 viewBox="0 0 52 65" style="enable-background:new 0 0 52 65;" xml:space="preserve">
<style type="text/css">
	.st0{fill:#B5BDD0;}
</style>
<g>
	<path class="st0" d="M30.2,35.9l-3.5-3.5l4.9-4.9l-2.8-2.8l2.2-2.2c1.2,0.9,2.7,1.4,4.2,1.4c1.9,0,3.6-0.7,4.9-2.1l0.7-0.7
		l-4.2-4.2l2.1-2.1l-1.4-1.4l-2.1,2.1l-4.2-4.2l-0.7,0.7c-1.3,1.3-2,3.1-2,4.9c0,1.5,0.5,3,1.4,4.2l-2.2,2.2l-2.8-2.8l-4.9,4.9
		l-3.5-3.5l2.1-2.1L8.3,9.8l-5.7,5.7l9.9,9.9l2.1-2.1l3.5,3.5l-7.8,7.8l7.1,7.1l7.8-7.8l3.5,3.5l-2.1,2.1l9.9,9.9l5.7-5.7l-9.9-9.9
		L30.2,35.9z"/>
	<path class="st0" d="M39.4,2.6v2c4.4,0,8,3.6,8,8h2C49.4,7.1,44.9,2.6,39.4,2.6z"/>
	<path class="st0" d="M39.4,6.6v2c2.2,0,4,1.8,4,4h2C45.4,9.3,42.7,6.6,39.4,6.6z"/>
	<path class="st0" d="M39.7,12.6h2c0-1.3-1-2.3-2.3-2.3v2C39.6,12.3,39.7,12.4,39.7,12.6z"/>
</g>
</svg>
