<?xml version="1.0" encoding="utf-8"?>
<!-- Generator: Adobe Illustrator 22.1.0, SVG Export Plug-In . SVG Version: 6.00 Build 0)  -->
<svg version="1.1"  xmlns="http://www.w3.org/2000/svg" xmlns:xlink="http://www.w3.org/1999/xlink" x="0px" y="0px"
	 viewBox="0 0 100 125" style="enable-background:new 0 0 100 125;" xml:space="preserve">
<style type="text/css">
	.st0{fill:#B5BDD0;}
</style>
<path class="st0" d="M5,21.6v56.8h90V21.6H5z M26.7,75.1H8.3v-5.3h18.3v5.3H26.7z M26.7,64.5H8.3v-5.3h18.3v5.3H26.7z M26.7,43.4
	H8.3v-5.3h18.3v5.3H26.7z M26.7,30.2H8.3v-5.3h18.3v5.3H26.7z M48.3,75.1H30v-5.3h18.3V75.1z M48.3,51.3H30V46h18.3V51.3z
	 M48.3,40.8H30v-5.3h18.3V40.8z M48.3,30.2H30v-5.3h18.3V30.2z M70,75.1H51.7v-5.3H70V75.1z M70,67.1H51.7v-5.3H70V67.1z M70,43.4
	H51.7v-5.3H70V43.4z M70,30.2H51.7v-5.3H70V30.2z M91.7,75.1H73.3v-5.3h18.3L91.7,75.1L91.7,75.1z M91.7,59.2H73.3V54h18.3
	L91.7,59.2L91.7,59.2z M91.7,51.3H73.3V46h18.3L91.7,51.3L91.7,51.3z M91.7,30.2H73.3v-5.3h18.3L91.7,30.2L91.7,30.2z"/>
</svg>
