<?xml version="1.0" encoding="utf-8"?>
<!-- Generator: Adobe Illustrator 22.1.0, SVG Export Plug-In . SVG Version: 6.00 Build 0)  -->
<svg version="1.1"  xmlns="http://www.w3.org/2000/svg" xmlns:xlink="http://www.w3.org/1999/xlink" x="0px" y="0px"
	 viewBox="0 0 52 65" style="enable-background:new 0 0 52 65;" xml:space="preserve">
<style type="text/css">
	.st0{fill:#B5BDD0;}
</style>
<g>
	<g>
		<path class="st0" d="M13.7,7h8.6c0.4,1.4,1.5,2.5,2.9,2.9v6H23c-1.6,0-3,1.3-3,3v2c0,0.5,0.5,1,1,1h0.8v2.8c0,0.2,0,0.3,0.1,0.4
			l1.1,2.2c0.2,0.4,0.5,0.6,0.9,0.6c0.1,0,0.3,0,0.4-0.1c0.5-0.2,0.7-0.8,0.5-1.3l-1-1.9v-2.5h4.8v2.5l-1,1.9
			c-0.2,0.5,0,1.1,0.5,1.3c0.1,0.1,0.3,0.1,0.4,0.1c0.4,0,0.7-0.2,0.9-0.6l1.1-2.2c0.1-0.1,0.1-0.3,0.1-0.4v-2.8h0.8
			c0.5,0,1-0.5,1-1v-2c0-1.7-1.4-3-3-3h-2.2v-6c1.7-0.4,3-2,3-3.9c0-2.2-1.8-4-4-4c-1.9,0-3.4,1.3-3.9,3h-8.6c-0.6,0-1,0.4-1,1
			S13.2,7,13.7,7z"/>
	</g>
	<g>
		<path class="st0" d="M44.4,32.6c0-0.5-0.5-1-1-1H35c-0.5,0-1,0.5-1,1V38h10.4V32.6z"/>
	</g>
	<g>
		<path class="st0" d="M22,31.6c-0.5,0-1,0.5-1,1V38h10.4v-5.4c0-0.5-0.5-1-1-1H22z"/>
	</g>
	<g>
		<path class="st0" d="M18,32.6c0-0.5-0.5-1-1-1H8.6c-0.5,0-1,0.5-1,1V38H18V32.6z"/>
	</g>
	<g>
		<path class="st0" d="M45,40H7c-2.8,0-5,2.2-5,5s2.2,5,5,5h38c2.8,0,5-2.2,5-5S47.8,40,45,40z M9,46H8c-0.6,0-1-0.4-1-1s0.4-1,1-1
			h1c0.6,0,1,0.4,1,1S9.6,46,9,46z M15,46h-1c-0.6,0-1-0.4-1-1s0.4-1,1-1h1c0.6,0,1,0.4,1,1S15.6,46,15,46z M21,46h-1
			c-0.6,0-1-0.4-1-1s0.4-1,1-1h1c0.6,0,1,0.4,1,1S21.6,46,21,46z M27,46h-1c-0.6,0-1-0.4-1-1s0.4-1,1-1h1c0.6,0,1,0.4,1,1
			S27.6,46,27,46z M33,46h-1c-0.6,0-1-0.4-1-1s0.4-1,1-1h1c0.6,0,1,0.4,1,1S33.6,46,33,46z M39,46h-1c-0.6,0-1-0.4-1-1s0.4-1,1-1h1
			c0.6,0,1,0.4,1,1S39.6,46,39,46z M44,46h-1c-0.6,0-1-0.4-1-1s0.4-1,1-1h1c0.6,0,1,0.4,1,1S44.6,46,44,46z"/>
	</g>
</g>
</svg>
